<?xml version="1.0" encoding="UTF-8" standalone="no"?>
<!-- Created with Inkscape (http://www.inkscape.org/) -->

<svg
   xmlns:dc="http://purl.org/dc/elements/1.1/"
   xmlns:cc="http://creativecommons.org/ns#"
   xmlns:rdf="http://www.w3.org/1999/02/22-rdf-syntax-ns#"
   xmlns:svg="http://www.w3.org/2000/svg"
   xmlns="http://www.w3.org/2000/svg"
   xmlns:sodipodi="http://sodipodi.sourceforge.net/DTD/sodipodi-0.dtd"
   xmlns:inkscape="http://www.inkscape.org/namespaces/inkscape"
   width="160mm"
   height="40mm"
   viewBox="0 0 160 40"
   version="1.1"
   id="svg8"
   inkscape:version="0.92.5 (2060ec1f9f, 2020-04-08)"
   sodipodi:docname="logo_inkscape.svg">
  <defs
     id="defs2" />
  <sodipodi:namedview
     id="base"
     pagecolor="#ffffff"
     bordercolor="#666666"
     borderopacity="1.0"
     inkscape:pageopacity="0.0"
     inkscape:pageshadow="2"
     inkscape:zoom="1.4"
     inkscape:cx="251.70688"
     inkscape:cy="45.428041"
     inkscape:document-units="mm"
     inkscape:current-layer="layer1"
     showgrid="false"
     inkscape:window-width="1920"
     inkscape:window-height="1043"
     inkscape:window-x="3840"
     inkscape:window-y="0"
     inkscape:window-maximized="1"
     inkscape:pagecheckerboard="true"
     units="mm"
     showguides="true"
     inkscape:guide-bbox="true">
    <sodipodi:guide
       position="158.28368,36.317879"
       orientation="1,0"
       id="guide841"
       inkscape:locked="false" />
  </sodipodi:namedview>
  <metadata
     id="metadata5">
    <rdf:RDF>
      <cc:Work
         rdf:about="">
        <dc:format>image/svg+xml</dc:format>
        <dc:type
           rdf:resource="http://purl.org/dc/dcmitype/StillImage" />
        <dc:title></dc:title>
      </cc:Work>
    </rdf:RDF>
  </metadata>
  <g
     inkscape:label="Layer 1"
     inkscape:groupmode="layer"
     id="layer1"
     transform="translate(0,-257)"
     style="display:inline">
    <g
       aria-label="Pioneered"
       transform="matrix(0.24809854,0,0,0.24809854,-0.48743512,259.7409)"
       style="font-style:normal;font-weight:normal;font-size:40px;line-height:1.25;font-family:sans-serif;letter-spacing:0px;word-spacing:0px;fill:#a90533;fill-opacity:1;stroke:none"
       id="flowRoot3864">
      <path
         d="m 69.076825,16.684538 q 23.75,0.75 28.500001,11.625001 4.791664,10.875 0.583333,18.375 -4.166667,7.5 -16.791667,10.25 -12.583334,2.75 -21.458334,2.041667 -8.875001,-0.75 -14.416667,-3.208333 L 45.076824,42.184539 q 12.958334,2.541667 24.291667,2.083333 11.375001,-0.5 10.000001,-7.25 -1.375,-6.75 -16.333334,-7.041667 -14.916667,-0.291666 -20.833334,11.541667 -5.875,11.833334 -13.25,35.041668 H 10.24349 L 9.4101563,76.142873 Q 25.11849,30.351205 35.201824,23.142872 q 10.125,-7.250001 33.875001,-6.458334 z"
         style="font-style:normal;font-variant:normal;font-weight:normal;font-stretch:normal;font-size:85.33333588px;font-family:Musieer;-inkscape-font-specification:'Musieer, Normal';font-variant-ligatures:normal;font-variant-caps:normal;font-variant-numeric:normal;font-feature-settings:normal;text-align:start;writing-mode:lr-tb;text-anchor:start;fill:#a90533;fill-opacity:1"
         id="path4850"
         inkscape:connector-curvature="0" />
      <path
         d="m 117.2435,34.017872 h 18.95833 L 121.6185,76.93454 h -19.79167 z"
         style="font-style:normal;font-variant:normal;font-weight:normal;font-stretch:normal;font-size:85.33333588px;font-family:Musieer;-inkscape-font-specification:'Musieer, Normal';font-variant-ligatures:normal;font-variant-caps:normal;font-variant-numeric:normal;font-feature-settings:normal;text-align:start;writing-mode:lr-tb;text-anchor:start;fill:#a90533;fill-opacity:1"
         id="path4852"
         inkscape:connector-curvature="0" />
      <path
         d="m 161.66017,54.892873 q -0.95834,8.875 12.16666,8.958333 13.16667,0.04167 15.25,-8.166667 2.125,-8.208333 -12.16666,-8.958333 -14.29167,-0.75 -15.25,8.166667 z m 13.29166,-20.416668 q 15.66667,0 26.75001,6.250001 11.08333,6.208333 11.08333,15.041667 0,8.833333 -11.08333,15.083333 -11.08334,6.208334 -26.75001,6.208334 -15.70833,0 -26.79166,-6.208334 -11.08334,-6.25 -11.08334,-15.083333 0,-8.833334 11.08334,-15.041667 11.08333,-6.250001 26.79166,-6.250001 z"
         style="font-style:normal;font-variant:normal;font-weight:normal;font-stretch:normal;font-size:85.33333588px;font-family:Musieer;-inkscape-font-specification:'Musieer, Normal';font-variant-ligatures:normal;font-variant-caps:normal;font-variant-numeric:normal;font-feature-settings:normal;text-align:start;writing-mode:lr-tb;text-anchor:start;fill:#a90533;fill-opacity:1"
         id="path4854"
         inkscape:connector-curvature="0" />
      <path
         d="m 237.70183,35.976205 q 13,-3.625 28.04167,-1.166666 15.04167,2.458333 14.58334,15.041667 -0.41667,12.583334 -6.87501,27.083334 h -18.91666 l 6.08333,-17.833334 q 3.20833,-11.625 -7,-12.375 -10.16667,-0.791667 -13.58333,11.25 l -6.375,18.958334 H 213.8685 l 3.20833,-12.291667 q 7.66667,-25.041667 20.625,-28.666668 z"
         style="font-style:normal;font-variant:normal;font-weight:normal;font-stretch:normal;font-size:85.33333588px;font-family:Musieer;-inkscape-font-specification:'Musieer, Normal';font-variant-ligatures:normal;font-variant-caps:normal;font-variant-numeric:normal;font-feature-settings:normal;text-align:start;writing-mode:lr-tb;text-anchor:start;fill:#a90533;fill-opacity:1"
         id="path4856"
         inkscape:connector-curvature="0" />
      <path
         d="m 321.28517,35.184539 q 28.79167,-0.125 30.83333,12.208333 2.08334,12.333334 -29.91667,13.750001 h -0.91666 q -13.91667,0 -23.20834,-5.541667 v 0.458333 q 0,6.750001 16.25,9.291667 3.33334,0.458334 8.33334,0.458334 13.08333,0 27.375,-4.666667 v 0.5 l -3.5,11.875 q -16.95834,4.791667 -38.08334,3.416667 -21.08333,-1.375 -24.33333,-17.041667 -3.25,-15.708334 22.33333,-23.333334 9.375,-1.375 14.83334,-1.375 z m -16.5,13.458333 q 9.66666,2.333334 19.125,2.333334 9.5,0 11.75,-2.541667 2.29166,-2.583333 -11.95834,-2.75 -14.25,-0.166667 -18.91666,2.958333 z"
         style="font-style:normal;font-variant:normal;font-weight:normal;font-stretch:normal;font-size:85.33333588px;font-family:Musieer;-inkscape-font-specification:'Musieer, Normal';font-variant-ligatures:normal;font-variant-caps:normal;font-variant-numeric:normal;font-feature-settings:normal;text-align:start;writing-mode:lr-tb;text-anchor:start;fill:#a90533;fill-opacity:1"
         id="path4858"
         inkscape:connector-curvature="0" />
      <path
         d="m 392.20182,35.184539 q 28.79167,-0.125 30.83334,12.208333 2.08333,12.333334 -29.91667,13.750001 h -0.91667 q -13.91666,0 -23.20833,-5.541667 v 0.458333 q 0,6.750001 16.25,9.291667 3.33333,0.458334 8.33333,0.458334 13.08334,0 27.375,-4.666667 v 0.5 l -3.5,11.875 q -16.95833,4.791667 -38.08333,3.416667 -21.08333,-1.375 -24.33333,-17.041667 -3.25,-15.708334 22.33333,-23.333334 9.375,-1.375 14.83333,-1.375 z m -16.5,13.458333 q 9.66667,2.333334 19.125,2.333334 9.5,0 11.75,-2.541667 2.29167,-2.583333 -11.95833,-2.75 -14.25,-0.166667 -18.91667,2.958333 z"
         style="font-style:normal;font-variant:normal;font-weight:normal;font-stretch:normal;font-size:85.33333588px;font-family:Musieer;-inkscape-font-specification:'Musieer, Normal';font-variant-ligatures:normal;font-variant-caps:normal;font-variant-numeric:normal;font-feature-settings:normal;text-align:start;writing-mode:lr-tb;text-anchor:start;fill:#a90533;fill-opacity:1"
         id="path4860"
         inkscape:connector-curvature="0" />
      <path
         d="m 457.11851,34.351205 h 20.66667 l -3.41667,10.250001 h -6.41667 q -10.45833,-0.125 -14,5.916667 -3.5,6.041666 -10.08333,26.416667 l -19.04167,0.04167 q 9.54167,-31.166668 15.83334,-36.875001 6.29166,-5.750001 16.45833,-5.750001 z"
         style="font-style:normal;font-variant:normal;font-weight:normal;font-stretch:normal;font-size:85.33333588px;font-family:Musieer;-inkscape-font-specification:'Musieer, Normal';font-variant-ligatures:normal;font-variant-caps:normal;font-variant-numeric:normal;font-feature-settings:normal;text-align:start;writing-mode:lr-tb;text-anchor:start;fill:#a90533;fill-opacity:1"
         id="path4862"
         inkscape:connector-curvature="0" />
      <path
         d="m 515.66017,35.184539 q 28.79167,-0.125 30.83333,12.208333 2.08334,12.333334 -29.91667,13.750001 h -0.91666 q -13.91667,0 -23.20834,-5.541667 v 0.458333 q 0,6.750001 16.25,9.291667 3.33334,0.458334 8.33334,0.458334 13.08333,0 27.375,-4.666667 v 0.5 l -3.5,11.875 q -16.95834,4.791667 -38.08334,3.416667 -21.08333,-1.375 -24.33333,-17.041667 -3.25,-15.708334 22.33333,-23.333334 9.375,-1.375 14.83334,-1.375 z m -16.5,13.458333 q 9.66666,2.333334 19.125,2.333334 9.5,0 11.75,-2.541667 2.29166,-2.583333 -11.95834,-2.75 -14.25,-0.166667 -18.91666,2.958333 z"
         style="font-style:normal;font-variant:normal;font-weight:normal;font-stretch:normal;font-size:85.33333588px;font-family:Musieer;-inkscape-font-specification:'Musieer, Normal';font-variant-ligatures:normal;font-variant-caps:normal;font-variant-numeric:normal;font-feature-settings:normal;text-align:start;writing-mode:lr-tb;text-anchor:start;fill:#a90533;fill-opacity:1"
         id="path4864"
         inkscape:connector-curvature="0" />
      <path
         d="m 620.03516,8.0595379 h 19.91667 q -15.75,42.2500011 -19.91667,52.0416681 -4.125,9.75 -10.70834,13.291667 -6.54166,3.541667 -21,3.708334 -14.41666,0.166666 -26.875,-3.583334 -12.41666,-3.791667 -11.79166,-19.666667 0.66666,-15.875001 25.45833,-18.250001 24.83333,-2.416666 32.70833,3.833334 h 0.875 z M 569.45182,56.017873 q 0,8.083333 15.25,8.041667 15.25,-0.04167 15.25,-9.791667 0,-6.000001 -15.25,-6.875001 -15.25,-0.916666 -15.25,8.625001 z"
         style="font-style:normal;font-variant:normal;font-weight:normal;font-stretch:normal;font-size:85.33333588px;font-family:Musieer;-inkscape-font-specification:'Musieer, Normal';font-variant-ligatures:normal;font-variant-caps:normal;font-variant-numeric:normal;font-feature-settings:normal;text-align:start;writing-mode:lr-tb;text-anchor:start;fill:#a90533;fill-opacity:1"
         id="path4866"
         inkscape:connector-curvature="0" />
    </g>
    <path
       sodipodi:type="star"
       style="fill:#a90533;fill-opacity:1;stroke:#a90533;stroke-width:0.60000002;stroke-linejoin:round;stroke-opacity:0.5465253"
       id="path4888"
       sodipodi:sides="5"
       sodipodi:cx="31.002808"
       sodipodi:cy="263.17722"
       sodipodi:r1="3.3648374"
       sodipodi:r2="1.2834432"
       sodipodi:arg1="-1.5707963"
       sodipodi:arg2="-0.9424778"
       inkscape:flatsided="false"
       inkscape:rounded="0"
       inkscape:randomized="0"
       d="m 31.002808,259.81238 0.754389,2.32651 2.445761,-0.001 -1.979523,1.4364 0.757174,2.32561 -1.977801,-1.43877 -1.977802,1.43877 0.757175,-2.32561 -1.979524,-1.4364 2.445762,0.001 z"
       inkscape:transform-center-y="-0.32131351" />
    <g
       aria-label="powered by Mixxx"
       transform="matrix(0.26458333,0,0,0.26458333,20.045214,258.84941)"
       style="font-style:normal;font-weight:normal;font-size:40px;line-height:1.25;font-family:sans-serif;letter-spacing:0px;word-spacing:0px;fill:#1e1e1e;fill-opacity:1;stroke:none"
       id="flowRoot26">
      <path
         d="m 114.16797,123.89063 h -7.46875 q 5.90625,-15.84375 7.45312,-19.5 1.5625,-3.67188 4.01563,-5.000005 2.46875,-1.328125 7.875,-1.390625 5.42187,-0.0625 10.07812,1.359375 4.67188,1.406255 4.42188,7.359375 -0.23438,5.95313 -9.54688,6.85938 -9.29687,0.89062 -12.25,-1.45313 h -0.3125 z m 18.96875,-17.98438 q 0,-3.03125 -5.71875,-3.01562 -5.71875,0.0156 -5.71875,3.67187 0,2.25 5.71875,2.59375 5.71875,0.32813 5.71875,-3.25 z"
         style="font-style:normal;font-variant:normal;font-weight:normal;font-stretch:normal;font-size:32px;font-family:Musieer;-inkscape-font-specification:'Musieer, Normal';font-variant-ligatures:normal;font-variant-caps:normal;font-variant-numeric:normal;font-feature-settings:normal;text-align:start;writing-mode:lr-tb;text-anchor:start;fill:#1e1e1e;fill-opacity:1"
         id="path879" />
      <path
         d="m 150.38672,105.625 q -0.35938,3.32813 4.5625,3.35938 4.9375,0.0156 5.71875,-3.0625 0.79687,-3.07813 -4.5625,-3.35938 -5.35938,-0.28125 -5.71875,3.0625 z m 4.98437,-7.65625 q 5.875,0 10.03125,2.34375 4.15625,2.32813 4.15625,5.64063 0,3.3125 -4.15625,5.65625 -4.15625,2.32812 -10.03125,2.32812 -5.89062,0 -10.04687,-2.32812 -4.15625,-2.34375 -4.15625,-5.65625 0,-3.3125 4.15625,-5.64063 4.15625,-2.34375 10.04687,-2.34375 z"
         style="font-style:normal;font-variant:normal;font-weight:normal;font-stretch:normal;font-size:32px;font-family:Musieer;-inkscape-font-specification:'Musieer, Normal';font-variant-ligatures:normal;font-variant-caps:normal;font-variant-numeric:normal;font-feature-settings:normal;text-align:start;writing-mode:lr-tb;text-anchor:start;fill:#1e1e1e;fill-opacity:1"
         id="path881" />
      <path
         d="m 193.13672,97.890625 -2.28125,7.000005 q -1.35938,4.35937 1.98437,4.65625 3.35938,0.28125 4.64063,-4.23438 l 2.54687,-7.421875 h 7.42188 L 205.24609,105.5 q -1.875,6.39063 -6.75,7.75 -4.85937,1.35938 -8.70312,0.4375 -1.95313,-0.625 -2.9375,-2.9375 -1.4375,1.98438 -3.04688,2.54688 -3.85937,1.35937 -8.71875,0.4375 -4.85937,-0.92188 -4.70312,-5.09375 0.17187,-4.17188 2.59375,-10.70313 h 7.09375 l -2.28125,8.25 q -1.20313,3.26563 1.98437,3.17188 3.20313,-0.10938 4.64063,-4.625 l 1.92187,-6.79688 z"
         style="font-style:normal;font-variant:normal;font-weight:normal;font-stretch:normal;font-size:32px;font-family:Musieer;-inkscape-font-specification:'Musieer, Normal';font-variant-ligatures:normal;font-variant-caps:normal;font-variant-numeric:normal;font-feature-settings:normal;text-align:start;writing-mode:lr-tb;text-anchor:start;fill:#1e1e1e;fill-opacity:1"
         id="path883" />
      <path
         d="m 222.07422,98.234375 q 10.79687,-0.04687 11.5625,4.578125 0.78125,4.625 -11.21875,5.15625 h -0.34375 q -5.21875,0 -8.70313,-2.07812 v 0.17187 q 0,2.53125 6.09375,3.48438 1.25,0.17187 3.125,0.17187 4.90625,0 10.26563,-1.75 v 0.1875 l -1.3125,4.45313 q -6.35938,1.79687 -14.28125,1.28125 -7.90625,-0.51563 -9.125,-6.39063 -1.21875,-5.89062 8.375,-8.75 3.51562,-0.515625 5.5625,-0.515625 z m -6.1875,5.046875 q 3.625,0.875 7.17187,0.875 3.5625,0 4.40625,-0.95312 0.85938,-0.96875 -4.48437,-1.03125 -5.34375,-0.0625 -7.09375,1.10937 z"
         style="font-style:normal;font-variant:normal;font-weight:normal;font-stretch:normal;font-size:32px;font-family:Musieer;-inkscape-font-specification:'Musieer, Normal';font-variant-ligatures:normal;font-variant-caps:normal;font-variant-numeric:normal;font-feature-settings:normal;text-align:start;writing-mode:lr-tb;text-anchor:start;fill:#1e1e1e;fill-opacity:1"
         id="path885" />
      <path
         d="m 246.41797,97.921875 h 7.75 l -1.28125,3.843755 h -2.40625 q -3.92188,-0.0469 -5.25,2.21875 -1.3125,2.26562 -3.78125,9.90625 l -7.14063,0.0156 q 3.57813,-11.6875 5.9375,-13.82812 2.35938,-2.156255 6.17188,-2.156255 z"
         style="font-style:normal;font-variant:normal;font-weight:normal;font-stretch:normal;font-size:32px;font-family:Musieer;-inkscape-font-specification:'Musieer, Normal';font-variant-ligatures:normal;font-variant-caps:normal;font-variant-numeric:normal;font-feature-settings:normal;text-align:start;writing-mode:lr-tb;text-anchor:start;fill:#1e1e1e;fill-opacity:1"
         id="path887" />
      <path
         d="m 268.37109,98.234375 q 10.79688,-0.04687 11.5625,4.578125 0.78125,4.625 -11.21875,5.15625 h -0.34375 q -5.21875,0 -8.70312,-2.07812 v 0.17187 q 0,2.53125 6.09375,3.48438 1.25,0.17187 3.125,0.17187 4.90625,0 10.26562,-1.75 v 0.1875 l -1.3125,4.45313 q -6.35937,1.79687 -14.28125,1.28125 -7.90625,-0.51563 -9.125,-6.39063 -1.21875,-5.89062 8.375,-8.75 3.51563,-0.515625 5.5625,-0.515625 z m -6.1875,5.046875 q 3.625,0.875 7.17188,0.875 3.5625,0 4.40625,-0.95312 0.85937,-0.96875 -4.48438,-1.03125 -5.34375,-0.0625 -7.09375,1.10937 z"
         style="font-style:normal;font-variant:normal;font-weight:normal;font-stretch:normal;font-size:32px;font-family:Musieer;-inkscape-font-specification:'Musieer, Normal';font-variant-ligatures:normal;font-variant-caps:normal;font-variant-numeric:normal;font-feature-settings:normal;text-align:start;writing-mode:lr-tb;text-anchor:start;fill:#1e1e1e;fill-opacity:1"
         id="path889" />
      <path
         d="m 307.51172,88.0625 h 7.46875 q -5.90625,15.84375 -7.46875,19.51563 -1.54688,3.65625 -4.01563,4.98437 -2.45312,1.32813 -7.875,1.39063 -5.40625,0.0625 -10.07812,-1.34375 -4.65625,-1.42188 -4.42188,-7.375 0.25,-5.95313 9.54688,-6.843755 9.3125,-0.90625 12.26562,1.4375 h 0.32813 z m -18.96875,17.98438 q 0,3.03125 5.71875,3.01562 5.71875,-0.0156 5.71875,-3.67187 0,-2.25 -5.71875,-2.57813 -5.71875,-0.34375 -5.71875,3.23438 z"
         style="font-style:normal;font-variant:normal;font-weight:normal;font-stretch:normal;font-size:32px;font-family:Musieer;-inkscape-font-specification:'Musieer, Normal';font-variant-ligatures:normal;font-variant-caps:normal;font-variant-numeric:normal;font-feature-settings:normal;text-align:start;writing-mode:lr-tb;text-anchor:start;fill:#1e1e1e;fill-opacity:1"
         id="path891" />
      <path
         d="m 325.54297,88.578125 h 7.09375 l -3.4375,10.125 q 3.75,-1.390625 10.45312,-0.07813 6.71875,1.3125 6.1875,7.17188 -1.39062,7.65625 -10.82812,8 -9.4375,0.34375 -11.79688,-1.125 -2.35937,-1.46875 -3.0625,-3.96875 -0.70312,-2.5 5.39063,-20.125005 z m 1.3125,17.703125 q 0,2.82813 5.60937,2.64063 5.60938,-0.1875 5.60938,-3.40625 0,-2.8125 -5.60938,-2.79688 -5.60937,0.0156 -5.60937,3.5625 z"
         style="font-style:normal;font-variant:normal;font-weight:normal;font-stretch:normal;font-size:32px;font-family:Musieer;-inkscape-font-specification:'Musieer, Normal';font-variant-ligatures:normal;font-variant-caps:normal;font-variant-numeric:normal;font-feature-settings:normal;text-align:start;writing-mode:lr-tb;text-anchor:start;fill:#1e1e1e;fill-opacity:1"
         id="path893" />
      <path
         d="m 359.02734,113.95313 q -3.23437,0.3125 -6.76562,-0.26563 -5.64063,-0.92187 -5.48438,-5.64062 0.17188,-4.71875 2.59375,-10.156255 h 7.09375 l -2.28125,6.687505 q -1.20312,4.35937 2.60938,4.65625 3.82812,0.28125 5.10937,-4.23438 l 2.40625,-7.109375 h 7.71875 q -0.64062,1.734375 -3.09375,8.828125 -4.625,13 -6.4375,14.65625 -2.35937,2.15625 -6.15625,2.17188 l -12.92187,0.0156 1.28125,-3.84375 h 7.54687 q 3.9375,0.0312 5.25,-2.23437 0.45313,-0.8125 1.53125,-3.53125 z"
         style="font-style:normal;font-variant:normal;font-weight:normal;font-stretch:normal;font-size:32px;font-family:Musieer;-inkscape-font-specification:'Musieer, Normal';font-variant-ligatures:normal;font-variant-caps:normal;font-variant-numeric:normal;font-feature-settings:normal;text-align:start;writing-mode:lr-tb;text-anchor:start;fill:#1e1e1e;fill-opacity:1"
         id="path895" />
      <path
         d="m 395.91797,113.89063 4.20312,-13.20313 q 1.42188,-4.359375 -2.3125,-4.640625 -3.71875,-0.296875 -5.04687,4.218755 l -4.5,13.625 h -8.23438 l 4.10938,-13.8125 q 1.95312,-6.39063 7.3125,-7.750005 5.375,-1.359375 9.67187,-0.4375 2.17188,0.625 3.3125,2.9375 1.5625,-1.984375 3.34375,-2.546875 4.23438,-1.359375 9.64063,-0.4375 5.42187,0.921875 5.32812,5.09375 -0.0937,4.17188 -4.46875,16.90625 h -7.875 l 4.1875,-14.453125 q 1.26563,-3.265625 -2.28125,-3.15625 -3.53125,0.09375 -5.03125,4.609375 l -3.82812,13 z"
         style="font-style:normal;font-variant:normal;font-weight:normal;font-stretch:normal;font-size:32px;font-family:Musieer;-inkscape-font-specification:'Musieer, Normal';font-variant-ligatures:normal;font-variant-caps:normal;font-variant-numeric:normal;font-feature-settings:normal;text-align:start;writing-mode:lr-tb;text-anchor:start;fill:#1e1e1e;fill-opacity:1"
         id="path897" />
      <path
         d="m 428.94922,97.796875 h 7.10937 l -5.46875,16.093755 h -7.42187 z"
         style="font-style:normal;font-variant:normal;font-weight:normal;font-stretch:normal;font-size:32px;font-family:Musieer;-inkscape-font-specification:'Musieer, Normal';font-variant-ligatures:normal;font-variant-caps:normal;font-variant-numeric:normal;font-feature-settings:normal;text-align:start;writing-mode:lr-tb;text-anchor:start;fill:#1e1e1e;fill-opacity:1"
         id="path899" />
      <path
         d="m 450.12109,101.96875 h 2.75 q 2.60938,0 4,-4 h 7.78125 q -0.15625,3.8125 -5.60937,6.95313 2.1875,1.84375 2.29687,4.10937 0.10938,2.25 -1.29687,4.92188 h -8.625 q 1.45312,-3.89063 1.48437,-5.625 0.0156,-1.4375 -2.375,-1.375 -2.79687,-0.0937 -3.64062,1.40625 -0.96875,1.73437 -1.75,5.625 h -8.625 q 0.14062,-2.67188 1.53125,-4.92188 1.40625,-2.26562 4.65625,-4.10937 Q 439.05859,101.8125 441.08984,98 h 7.76563 q -0.82813,3.64063 1.26562,3.96875 z"
         style="font-style:normal;font-variant:normal;font-weight:normal;font-stretch:normal;font-size:32px;font-family:Musieer;-inkscape-font-specification:'Musieer, Normal';font-variant-ligatures:normal;font-variant-caps:normal;font-variant-numeric:normal;font-feature-settings:normal;text-align:start;writing-mode:lr-tb;text-anchor:start;fill:#1e1e1e;fill-opacity:1"
         id="path901" />
      <path
         d="m 478.91797,101.96875 h 2.75 q 2.60937,0 4,-4 h 7.78125 q -0.15625,3.8125 -5.60938,6.95313 2.1875,1.84375 2.29688,4.10937 0.10937,2.25 -1.29688,4.92188 h -8.625 q 1.45313,-3.89063 1.48438,-5.625 0.0156,-1.4375 -2.375,-1.375 -2.79688,-0.0937 -3.64063,1.40625 -0.96875,1.73437 -1.75,5.625 h -8.625 q 0.14063,-2.67188 1.53125,-4.92188 1.40625,-2.26562 4.65625,-4.10937 Q 467.85547,101.8125 469.88672,98 h 7.76562 q -0.82812,3.64063 1.26563,3.96875 z"
         style="font-style:normal;font-variant:normal;font-weight:normal;font-stretch:normal;font-size:32px;font-family:Musieer;-inkscape-font-specification:'Musieer, Normal';font-variant-ligatures:normal;font-variant-caps:normal;font-variant-numeric:normal;font-feature-settings:normal;text-align:start;writing-mode:lr-tb;text-anchor:start;fill:#1e1e1e;fill-opacity:1"
         id="path903" />
      <path
         d="m 507.71484,101.96875 h 2.75 q 2.60938,0 4,-4 h 7.78125 q -0.15625,3.8125 -5.60937,6.95313 2.1875,1.84375 2.29687,4.10937 0.10938,2.25 -1.29687,4.92188 h -8.625 q 1.45312,-3.89063 1.48437,-5.625 0.0156,-1.4375 -2.375,-1.375 -2.79687,-0.0937 -3.64062,1.40625 -0.96875,1.73437 -1.75,5.625 h -8.625 q 0.14062,-2.67188 1.53125,-4.92188 1.40625,-2.26562 4.65625,-4.10937 Q 496.65234,101.8125 498.68359,98 h 7.76563 q -0.82813,3.64063 1.26562,3.96875 z"
         style="font-style:normal;font-variant:normal;font-weight:normal;font-stretch:normal;font-size:32px;font-family:Musieer;-inkscape-font-specification:'Musieer, Normal';font-variant-ligatures:normal;font-variant-caps:normal;font-variant-numeric:normal;font-feature-settings:normal;text-align:start;writing-mode:lr-tb;text-anchor:start;fill:#1e1e1e;fill-opacity:1"
         id="path905" />
    </g>
  </g>
</svg>
